<svg width="66" height="70" viewBox="0 0 66 70" fill="none" xmlns="http://www.w3.org/2000/svg">
<path d="M13.9016 17.4023C13.3092 19.3538 13 21.4022 13 23.4834C13 47.381 3 54.2087 3 54.2087H53" stroke="#FFE1D0" stroke-width="4.92476" stroke-linecap="round" stroke-linejoin="round"/>
<path d="M53 23.4844C53 47.382 63 54.2097 63 54.2097" stroke="#FFE1D0" stroke-width="4.92476" stroke-linecap="round" stroke-linejoin="round"/>
<path d="M18.8578 8.99951C22.6085 5.15807 27.6957 3 33.0001 3C38.3044 3 43.6111 6.41198 43.6111 6.41198" stroke="#FFE1D0" stroke-width="4.92476" stroke-linecap="round" stroke-linejoin="round"/>
<path d="M38.7667 63.8105C38.1807 64.7806 37.3397 65.5859 36.3274 66.1454C35.3154 66.7051 34.1681 66.9999 33.0001 66.9999C31.8321 66.9999 30.6847 66.7051 29.6727 66.1454C28.6607 65.5859 27.8194 64.7806 27.2334 63.8105" stroke="#FFE1D0" stroke-width="4.92476" stroke-linecap="round" stroke-linejoin="round"/>
<path d="M3 6.20117L63 63.8112" stroke="#FFE1D0" stroke-width="4.92476" stroke-linecap="round" stroke-linejoin="round"/>
<path d="M50.0391 22.1672C55.2714 22.1672 59.5128 18.0947 59.5128 13.0709C59.5128 8.04718 55.2714 3.97461 50.0391 3.97461C44.8068 3.97461 40.5654 8.04718 40.5654 13.0709C40.5654 18.0947 44.8068 22.1672 50.0391 22.1672Z" stroke="#FFE1D0" stroke-width="4.66557" stroke-linecap="round" stroke-linejoin="round"/>
</svg>
