<svg width="19" height="20" viewBox="0 0 19 20" fill="none" xmlns="http://www.w3.org/2000/svg">
<path id="Vector" d="M1.2729 11.3965L0.306803 10.4142C-0.102267 9.99822 -0.102267 9.32563 0.306803 8.91411L8.76237 0.31196C9.17144 -0.103987 9.83291 -0.103987 10.2376 0.31196L18.6932 8.90968C19.1023 9.32563 19.1023 9.99822 18.6932 10.4097L17.7271 11.3921C17.3137 11.8125 16.6391 11.8036 16.2344 11.3744L11.2429 6.04672V18.7641C11.2429 19.3526 10.7773 19.8261 10.1985 19.8261H8.80589C8.2271 19.8261 7.76145 19.3526 7.76145 18.7641V6.04672L2.76557 11.3788C2.36086 11.8125 1.68633 11.8213 1.2729 11.3965Z" fill="white"/>
</svg>
