<svg xmlns="http://www.w3.org/2000/svg" width="26" height="26" viewBox="0 0 26 26" fill="none">
<path d="M8.98381 4.65055C9.18697 4.44739 9.46252 4.33325 9.74984 4.33325H16.2498C16.5372 4.33325 16.8127 4.44739 17.0159 4.65055L18.8652 6.49992H21.6665C22.8631 6.49992 23.8332 7.46997 23.8332 8.66658V19.4999C23.8332 20.6965 22.8631 21.6666 21.6665 21.6666H4.33317C3.13655 21.6666 2.1665 20.6965 2.1665 19.4999V8.66658C2.1665 7.46997 3.13655 6.49992 4.33317 6.49992H7.13444L8.98381 4.65055ZM10.1986 6.49992L8.3492 8.34928C8.14604 8.55245 7.87049 8.66658 7.58317 8.66658L4.33317 8.66658V19.4999H21.6665V8.66658H18.4165C18.1292 8.66658 17.8536 8.55245 17.6505 8.34928L15.8011 6.49992H10.1986ZM12.9998 11.3749C11.8032 11.3749 10.8332 12.345 10.8332 13.5416C10.8332 14.7382 11.8032 15.7083 12.9998 15.7083C14.1965 15.7083 15.1665 14.7382 15.1665 13.5416C15.1665 12.345 14.1965 11.3749 12.9998 11.3749ZM8.6665 13.5416C8.6665 11.1484 10.6066 9.20825 12.9998 9.20825C15.3931 9.20825 17.3332 11.1484 17.3332 13.5416C17.3332 15.9348 15.3931 17.8749 12.9998 17.8749C10.6066 17.8749 8.6665 15.9348 8.6665 13.5416Z" fill="#FF8743"/>
</svg>