<svg width="30" height="30" viewBox="0 0 30 30" fill="none" xmlns="http://www.w3.org/2000/svg">
<g id="majesticons:chat-line">
<path id="Vector" d="M15.0002 26.25C17.4964 26.2496 19.9215 25.4191 21.8938 23.8892C23.8661 22.3593 25.2736 20.2169 25.8947 17.7992C26.5158 15.3816 26.3152 12.8261 25.3245 10.5349C24.3338 8.24382 22.6093 6.34725 20.4224 5.14382C18.2355 3.94038 15.7105 3.49843 13.2448 3.88755C10.7792 4.27666 8.51302 5.47473 6.80302 7.29315C5.09303 9.11156 4.03636 11.447 3.79937 13.9319C3.56238 16.4168 4.15853 18.9099 5.49396 21.0188L3.75021 26.25L8.98146 24.5063C10.7809 25.6485 12.8689 26.2534 15.0002 26.25Z" stroke="#333333" stroke-width="2.5" stroke-linecap="round" stroke-linejoin="round"/>
</g>
</svg>
