<svg width="30" height="30" viewBox="0 0 30 30" fill="none" xmlns="http://www.w3.org/2000/svg">
<path d="M26.2486 14.9983C26.2482 12.5022 25.4177 10.077 23.8877 8.10472C22.3578 6.13239 20.2154 4.72489 17.7978 4.1038C15.3801 3.48271 12.8246 3.68331 10.5335 4.67402C8.24235 5.66473 6.34579 7.38928 5.14235 9.57616C3.93892 11.763 3.49697 14.2881 3.88608 16.7537C4.27519 19.2193 5.47326 21.4855 7.29168 23.1955C9.1101 24.9055 11.4456 25.9622 13.9304 26.1992C16.4153 26.4362 18.9084 25.84 21.0173 24.5046L26.2486 26.2483L24.5048 21.0171C25.647 19.2177 26.2519 17.1296 26.2486 14.9983Z" stroke="#333333" stroke-width="2.7" stroke-linecap="round" stroke-linejoin="round"/>
</svg>
