<svg width="current" height="current" viewBox="0 0 12 12" fill="none" xmlns="http://www.w3.org/2000/svg">
<g id="circle-warning">
<g id="Icon">
<path d="M6 2C3.79086 2 2 3.79086 2 6C2 8.20914 3.79086 10 6 10C8.20914 10 10 8.20914 10 6C10 3.79086 8.20914 2 6 2ZM1 6C1 3.23858 3.23858 1 6 1C8.76142 1 11 3.23858 11 6C11 8.76142 8.76142 11 6 11C3.23858 11 1 8.76142 1 6Z" fill="#FF3B30"/>
<path d="M6 7C5.72386 7 5.5 6.77614 5.5 6.5L5.5 3.5C5.5 3.22386 5.72386 3 6 3C6.27614 3 6.5 3.22386 6.5 3.5L6.5 6.5C6.5 6.77614 6.27614 7 6 7Z" fill="#FF3B30"/>
<path d="M5.25 8.25C5.25 7.83579 5.58579 7.5 6 7.5C6.41421 7.5 6.75 7.83579 6.75 8.25C6.75 8.66421 6.41421 9 6 9C5.58579 9 5.25 8.66421 5.25 8.25Z" fill="#FF3B30"/>
</g>
</g>
</svg>
