<svg xmlns="http://www.w3.org/2000/svg" width="current" height="current" viewBox="0 0 12 12" fill="currentColor">
  <path d="M6 2C3.79086 2 2 3.79086 2 6C2 8.20914 3.79086 10 6 10C8.20914 10 10 8.20914 10 6C10 3.79086 8.20914 2 6 2ZM1 6C1 3.23858 3.23858 1 6 1C8.76142 1 11 3.23858 11 6C11 8.76142 8.76142 11 6 11C3.23858 11 1 8.76142 1 6ZM8.33218 4.3763C8.53857 4.55975 8.55716 4.87579 8.3737 5.08218L5.70704 8.08218C5.61215 8.18893 5.47615 8.25 5.33333 8.25C5.19051 8.25 5.05451 8.18893 4.95963 8.08218L3.6263 6.58218C3.44284 6.37579 3.46143 6.05975 3.66782 5.8763C3.87421 5.69284 4.19025 5.71143 4.3737 5.91782L5.33333 6.9974L7.6263 4.41782C7.80975 4.21143 8.12579 4.19284 8.33218 4.3763Z" fill="current"/>
  </svg>