<svg width="14" height="14" viewBox="0 0 14 14" fill="none" xmlns="http://www.w3.org/2000/svg">
<g id="copy">
<path id="Icon" d="M1.16675 2.33317C1.16675 1.68884 1.68908 1.1665 2.33341 1.1665H8.16675C8.81108 1.1665 9.33342 1.68884 9.33342 2.33317V4.6665H11.6667C12.3111 4.6665 12.8334 5.18884 12.8334 5.83317V11.6665C12.8334 12.3108 12.3111 12.8332 11.6667 12.8332H5.83342C5.18908 12.8332 4.66675 12.3108 4.66675 11.6665V9.33317H2.33341C1.68908 9.33317 1.16675 8.81084 1.16675 8.1665V2.33317ZM5.83342 9.33317V11.6665H11.6667V5.83317H9.33342V8.1665C9.33342 8.81084 8.81108 9.33317 8.16675 9.33317H5.83342ZM8.16675 8.1665V2.33317L2.33341 2.33317V8.1665H8.16675Z" fill="#C2C2C2"/>
</g>
</svg>
