<svg width="27" height="27" viewBox="0 0 27 27" fill="none" xmlns="http://www.w3.org/2000/svg">
<path d="M3.36523 9V21.375C3.36523 23.8511 5.36808 24.75 6.71447 24.75H23.4607V22.5H6.72787C6.21209 22.4865 5.59806 22.2817 5.59806 21.375C5.59806 20.4683 6.21209 20.2635 6.72787 20.25H23.4607V4.5C23.4607 3.25912 22.4592 2.25 21.2278 2.25H6.71447C5.36808 2.25 3.36523 3.14887 3.36523 5.625V9ZM6.71447 4.5H21.2278V18H5.59806V5.625C5.59806 4.71825 6.21209 4.5135 6.71447 4.5Z" fill="currentColor"/>
<path d="M13.4095 15.75L17.1495 12.0499C17.3801 11.8264 17.5635 11.5583 17.6889 11.2617C17.8142 10.9651 17.8788 10.646 17.8788 10.3236C17.8788 10.0012 17.8142 9.68212 17.6889 9.38549C17.5635 9.08885 17.3801 8.82076 17.1495 8.59728C16.6846 8.13491 16.0577 7.87566 15.4046 7.87566C14.7514 7.87566 14.1245 8.13491 13.6596 8.59728L13.4095 8.84253L13.1594 8.59616C12.6948 8.13386 12.0681 7.87463 11.4151 7.87463C10.7621 7.87463 10.1353 8.13386 9.67066 8.59616C9.44006 8.81963 9.25662 9.08773 9.13131 9.38436C9.006 9.681 8.94141 10.0001 8.94141 10.3225C8.94141 10.6449 9.006 10.9639 9.13131 11.2606C9.25662 11.5572 9.44006 11.8253 9.67066 12.0488L13.4095 15.75Z" fill="currentColor"/>
</svg>
