<svg width="current" height="current" viewBox="0 0 28 27" fill="white" xmlns="http://www.w3.org/2000/svg">
<g id="edit">
<path id="Icon" d="M18.9838 2.5795C19.4231 2.14017 20.1355 2.14017 20.5748 2.5795L25.0748 7.0795C25.5141 7.51885 25.5141 8.23116 25.0748 8.6705L10.4498 23.2955C10.2388 23.5065 9.95267 23.625 9.6543 23.625H5.1543C4.53298 23.625 4.0293 23.1213 4.0293 22.5V18C4.0293 17.7016 4.14782 17.4155 4.3588 17.2045L15.6086 5.95474L18.9838 2.5795ZM16.4043 8.34099L6.2793 18.466V21.375H9.18831L19.3133 11.25L16.4043 8.34099ZM20.9043 9.65901L22.6883 7.875L19.7793 4.96599L17.9953 6.75L20.9043 9.65901Z" fill="current"/>
</g>
</svg>
