<svg width="current" height="current" viewBox="0 0 92 93" fill="none" xmlns="http://www.w3.org/2000/svg">
<g id="Icon/Feather Icon">
<path id="Vector" d="M72.8333 12H19.1667C14.9325 12 11.5 15.4325 11.5 19.6667V73.3333C11.5 77.5675 14.9325 81 19.1667 81H72.8333C77.0675 81 80.5 77.5675 80.5 73.3333V19.6667C80.5 15.4325 77.0675 12 72.8333 12Z" stroke="#212121" stroke-width="3" stroke-linecap="round" stroke-linejoin="round"/>
<path id="Vector_2" d="M32.584 38.833C35.7596 38.833 38.334 36.2586 38.334 33.083C38.334 29.9074 35.7596 27.333 32.584 27.333C29.4083 27.333 26.834 29.9074 26.834 33.083C26.834 36.2586 29.4083 38.833 32.584 38.833Z" stroke="#212121" stroke-width="3" stroke-linecap="round" stroke-linejoin="round"/>
<path id="Vector_3" d="M80.4994 57.9997L61.3327 38.833L19.166 80.9997" stroke="#212121" stroke-width="3" stroke-linecap="round" stroke-linejoin="round"/>
</g>
</svg>
