<svg width="28" height="27" viewBox="0 0 28 27" fill="none" xmlns="http://www.w3.org/2000/svg">
<path d="M10.3145 12.9375C10.9311 12.9375 11.4309 12.4338 11.4309 11.8125C11.4309 11.1912 10.9311 10.6875 10.3145 10.6875C9.69791 10.6875 9.19807 11.1912 9.19807 11.8125C9.19807 12.4338 9.69791 12.9375 10.3145 12.9375Z" fill="currentColor"/>
<path d="M12.5473 11.8125C12.5473 11.1912 13.0471 10.6875 13.6637 10.6875H17.013C17.6295 10.6875 18.1294 11.1912 18.1294 11.8125C18.1294 12.4338 17.6295 12.9375 17.013 12.9375H13.6637C13.0471 12.9375 12.5473 12.4338 12.5473 11.8125Z" fill="currentColor"/>
<path d="M13.6637 14.0625C13.0471 14.0625 12.5473 14.5662 12.5473 15.1875C12.5473 15.8088 13.0471 16.3125 13.6637 16.3125H17.013C17.6295 16.3125 18.1294 15.8088 18.1294 15.1875C18.1294 14.5662 17.6295 14.0625 17.013 14.0625H13.6637Z" fill="currentColor"/>
<path d="M13.6637 17.4375C13.0471 17.4375 12.5473 17.9412 12.5473 18.5625C12.5473 19.1838 13.0471 19.6875 13.6637 19.6875H17.013C17.6295 19.6875 18.1294 19.1838 18.1294 18.5625C18.1294 17.9412 17.6295 17.4375 17.013 17.4375H13.6637Z" fill="currentColor"/>
<path d="M11.4309 15.1875C11.4309 15.8088 10.9311 16.3125 10.3145 16.3125C9.69791 16.3125 9.19807 15.8088 9.19807 15.1875C9.19807 14.5662 9.69791 14.0625 10.3145 14.0625C10.9311 14.0625 11.4309 14.5662 11.4309 15.1875Z" fill="currentColor"/>
<path d="M10.3145 19.6875C10.9311 19.6875 11.4309 19.1838 11.4309 18.5625C11.4309 17.9412 10.9311 17.4375 10.3145 17.4375C9.69791 17.4375 9.19807 17.9412 9.19807 18.5625C9.19807 19.1838 9.69791 19.6875 10.3145 19.6875Z" fill="currentColor"/>
<path d="M10.3145 2.25C9.69791 2.25 9.19807 2.75368 9.19807 3.375H6.96525C5.73209 3.375 4.73242 4.38236 4.73242 5.625V22.5C4.73242 23.7426 5.73209 24.75 6.96525 24.75H20.3622C21.5953 24.75 22.595 23.7426 22.595 22.5V5.625C22.595 4.38236 21.5953 3.375 20.3622 3.375H18.1294C18.1294 2.75368 17.6295 2.25 17.013 2.25H10.3145ZM18.1294 5.625H20.3622V22.5H6.96525V5.625H9.19807V6.75C9.19807 7.37132 9.69791 7.875 10.3145 7.875H17.013C17.6295 7.875 18.1294 7.37132 18.1294 6.75V5.625ZM11.4309 5.625V4.5H15.8965V5.625H11.4309Z" fill="currentColor"/>
</svg>
