<svg width="30" height="30" viewBox="0 0 30 30" fill="none" xmlns="http://www.w3.org/2000/svg">
<g id="ph:heart-bold">
<path id="Vector" d="M20.8594 3.28125C18.5051 3.28125 16.4156 4.21055 15 5.80781C13.5844 4.21055 11.4949 3.28125 9.14062 3.28125C7.0901 3.28373 5.12428 4.0994 3.67434 5.54934C2.2244 6.99928 1.40873 8.9651 1.40625 11.0156C1.40625 19.493 13.8059 26.2664 14.3332 26.5512C14.5381 26.6615 14.7672 26.7193 15 26.7193C15.2328 26.7193 15.4619 26.6615 15.6668 26.5512C16.1941 26.2664 28.5938 19.493 28.5938 11.0156C28.5913 8.9651 27.7756 6.99928 26.3257 5.54934C24.8757 4.0994 22.9099 3.28373 20.8594 3.28125ZM20.216 19.9641C18.5839 21.349 16.8392 22.5955 15 23.6906C13.1608 22.5955 11.4161 21.349 9.78398 19.9641C7.24453 17.7855 4.21875 14.4633 4.21875 11.0156C4.21875 9.71026 4.7373 8.45836 5.66033 7.53533C6.58336 6.6123 7.83526 6.09375 9.14062 6.09375C11.2266 6.09375 12.9727 7.19531 13.698 8.96953C13.8036 9.22817 13.9838 9.44951 14.2157 9.60531C14.4476 9.76111 14.7206 9.84431 15 9.84431C15.2794 9.84431 15.5524 9.76111 15.7843 9.60531C16.0162 9.44951 16.1964 9.22817 16.302 8.96953C17.0273 7.19531 18.7734 6.09375 20.8594 6.09375C22.1647 6.09375 23.4166 6.6123 24.3397 7.53533C25.2627 8.45836 25.7812 9.71026 25.7812 11.0156C25.7812 14.4633 22.7555 17.7855 20.216 19.9641Z" fill="#333333"/>
</g>
</svg>
