<svg xmlns="http://www.w3.org/2000/svg" width="28" height="27" viewBox="0 0 28 27" fill="none">
  <path d="M13.4175 2.53416C13.8405 2.15528 14.478 2.15528 14.901 2.53416L24.9487 11.5342C25.4095 11.9469 25.451 12.658 25.0414 13.1224C24.6317 13.5868 23.9261 13.6286 23.4653 13.2158L23.0906 12.8802V21.375C23.0906 22.6176 22.0909 23.625 20.8577 23.625H7.46078C6.22762 23.625 5.22795 22.6176 5.22795 21.375V12.8802L4.85325 13.2158C4.39241 13.6286 3.68676 13.5868 3.27712 13.1224C2.86749 12.658 2.909 11.9469 3.36984 11.5342L13.4175 2.53416ZM7.46078 10.8802V21.375H10.81V15.75C10.81 15.1287 11.3098 14.625 11.9264 14.625H16.3921C17.0087 14.625 17.5085 15.1287 17.5085 15.75V21.375H20.8577V10.8802L14.1593 4.8802L7.46078 10.8802ZM15.2757 21.375V16.875H13.0428V21.375H15.2757Z" fill="currentColor"/>
  </svg>