<svg width="15" height="14" viewBox="0 0 15 14" fill="none" xmlns="http://www.w3.org/2000/svg">
<path d="M6.57668 1.21993C6.91828 0.398634 8.08173 0.398636 8.42332 1.21993L9.51371 3.84155C9.65772 4.18779 9.98333 4.42435 10.3571 4.45432L13.1874 4.68122C14.074 4.7523 14.4336 5.85881 13.758 6.43748L11.6017 8.28463C11.3169 8.52858 11.1925 8.91136 11.2795 9.27612L11.9383 12.038C12.1447 12.9032 11.2035 13.5871 10.4444 13.1234L8.02125 11.6434C7.70124 11.4479 7.29876 11.4479 6.97875 11.6434L4.55565 13.1234C3.79655 13.5871 2.8553 12.9032 3.06168 12.038L3.72049 9.27612C3.8075 8.91136 3.68312 8.52858 3.39833 8.28463L1.24197 6.43748C0.566437 5.85881 0.925965 4.7523 1.81262 4.68122L4.64288 4.45432C5.01667 4.42435 5.34228 4.18778 5.48629 3.84155L6.57668 1.21993Z" fill="#FF8743"/>
</svg>
