<svg width="18" height="18" viewBox="0 0 18 18" fill="none" xmlns="http://www.w3.org/2000/svg">
<g id="bx-like">
<path id="Vector" d="M15 6H10.791L11.6332 3.47475C11.7847 3.01875 11.7083 2.51325 11.427 2.12325C11.1458 1.73325 10.6898 1.5 10.209 1.5H9C8.77725 1.5 8.5665 1.599 8.42325 1.77L4.89825 6H3C2.17275 6 1.5 6.67275 1.5 7.5V14.25C1.5 15.0773 2.17275 15.75 3 15.75H12.9802C13.2854 15.749 13.5831 15.6554 13.8339 15.4816C14.0847 15.3077 14.2769 15.0619 14.385 14.7765L16.4528 9.26325C16.4841 9.17904 16.5001 9.08987 16.5 9V7.5C16.5 6.67275 15.8273 6 15 6ZM3 7.5H4.5V14.25H3V7.5ZM15 8.86425L12.9802 14.25H6V7.0215L9.351 3H10.2105L9.039 6.51225C9.00097 6.62499 8.99036 6.74516 9.00806 6.86282C9.02575 6.98048 9.07124 7.09222 9.14075 7.18878C9.21025 7.28535 9.30178 7.36395 9.40774 7.41807C9.51369 7.4722 9.63102 7.50028 9.75 7.5H15V8.86425Z" fill="#FF8743"/>
</g>
</svg>
