<svg width="20" height="20" viewBox="0 0 20 20" fill="none" xmlns="http://www.w3.org/2000/svg">
<path d="M1 3C1 1.89543 1.89543 1 3 1H17C18.1046 1 19 1.89543 19 3V17C19 18.1046 18.1046 19 17 19H3C1.89543 19 1 18.1046 1 17V3ZM17 3H3V17H17V3ZM10 5C10.5523 5 11 5.44772 11 6V14C11 14.5523 10.5523 15 10 15C9.44772 15 9 14.5523 9 14V6C9 5.44772 9.44772 5 10 5ZM14 7C14.5523 7 15 7.44772 15 8V14C15 14.5523 14.5523 15 14 15C13.4477 15 13 14.5523 13 14V8C13 7.44772 13.4477 7 14 7ZM6 9C6.55228 9 7 9.44772 7 10V14C7 14.5523 6.55228 15 6 15C5.44772 15 5 14.5523 5 14V10C5 9.44772 5.44772 9 6 9Z" fill="white"/>
</svg>
