<svg width="16" height="17" viewBox="0 0 16 17" fill="none" xmlns="http://www.w3.org/2000/svg">
<path d="M12.1511 7.63159C12.5799 11.5925 14.2632 12.7895 14.2632 12.7895H1C1 12.7895 3.21053 11.2176 3.21053 5.7158C3.21053 4.46509 3.67632 3.26561 4.50543 2.38123C5.33454 1.49684 6.45905 1 7.63159 1C7.88013 1 8.12653 1.02233 8.36843 1.06594" stroke="#FF8743" stroke-width="1.6" stroke-linecap="round" stroke-linejoin="round"/>
<path d="M12.7894 5.42106C14.0103 5.42106 14.9999 4.43137 14.9999 3.21053C14.9999 1.98969 14.0103 1 12.7894 1C11.5685 1 10.5789 1.98969 10.5789 3.21053C10.5789 4.43137 11.5685 5.42106 12.7894 5.42106Z" stroke="#FF8743" stroke-width="1.6" stroke-linecap="round" stroke-linejoin="round"/>
<path d="M8.90641 15C8.77687 15.2233 8.59097 15.4087 8.36719 15.5375C8.14348 15.6664 7.88986 15.7343 7.63167 15.7343C7.37348 15.7343 7.11986 15.6664 6.89615 15.5375C6.67245 15.4087 6.48647 15.2233 6.35693 15" stroke="#FF8743" stroke-width="1.6" stroke-linecap="round" stroke-linejoin="round"/>
</svg>
