<svg width="27" height="27" viewBox="0 0 27 27" fill="none" xmlns="http://www.w3.org/2000/svg">
<g id="settings">
<g id="Icon">
<path d="M13.5 4.5C12.8787 4.5 12.375 5.00368 12.375 5.625C12.375 7.52879 10.0732 8.48221 8.72706 7.13603C8.28772 6.69669 7.57541 6.69669 7.13607 7.13603C6.69673 7.57537 6.69673 8.28768 7.13607 8.72702C8.4823 10.0733 7.52876 12.375 5.625 12.375C5.00368 12.375 4.5 12.8787 4.5 13.5C4.5 14.1213 5.00368 14.625 5.625 14.625C7.5289 14.625 8.48209 16.9269 7.13599 18.273C6.69665 18.7123 6.69665 19.4246 7.13599 19.864C7.57533 20.3033 8.28764 20.3033 8.72698 19.864C10.0731 18.5178 12.375 19.4711 12.375 21.375C12.375 21.9963 12.8787 22.5 13.5 22.5C14.1213 22.5 14.625 21.9963 14.625 21.375C14.625 19.4712 16.9268 18.5177 18.273 19.8639C18.7123 20.3033 19.4246 20.3033 19.864 19.8639C20.3033 19.4246 20.3033 18.7123 19.864 18.273C18.5178 16.9268 19.4712 14.625 21.375 14.625C21.9963 14.625 22.5 14.1213 22.5 13.5C22.5 12.8787 21.9963 12.375 21.375 12.375C19.4713 12.375 18.5176 10.0733 19.8639 8.72704C20.3033 8.2877 20.3033 7.57539 19.8639 7.13605C19.4246 6.69671 18.7123 6.69671 18.2729 7.13605C16.9267 8.48227 14.625 7.52872 14.625 5.625C14.625 5.00368 14.1213 4.5 13.5 4.5ZM10.1342 5.37416C10.2625 3.62734 11.7204 2.25 13.5 2.25C15.2796 2.25 16.7375 3.62734 16.8658 5.37416C18.1918 4.22974 20.1966 4.2867 21.4549 5.54506C22.7133 6.80342 22.7702 8.80824 21.6258 10.1342C23.3726 10.2625 24.75 11.7204 24.75 13.5C24.75 15.2796 23.3727 16.7375 21.6258 16.8658C22.7703 18.1918 22.7133 20.1966 21.455 21.4549C20.1966 22.7133 18.1918 22.7703 16.8658 21.6258C16.7375 23.3726 15.2796 24.75 13.5 24.75C11.7204 24.75 10.2625 23.3726 10.1342 21.6258C8.80824 22.7703 6.80338 22.7133 5.545 21.455C4.28663 20.1966 4.22968 18.1918 5.37415 16.8658C3.62734 16.7375 2.25 15.2796 2.25 13.5C2.25 11.7204 3.62737 10.2625 5.37422 10.1342C4.22976 8.80824 4.28671 6.80341 5.54508 5.54504C6.80343 4.28668 8.80825 4.22972 10.1342 5.37416Z" fill="#C1C1C1"/>
<path d="M13.5 11.25C12.9033 11.25 12.331 11.4871 11.909 11.909C11.4871 12.331 11.25 12.9033 11.25 13.5C11.25 14.0967 11.4871 14.669 11.909 15.091C12.331 15.5129 12.9033 15.75 13.5 15.75C14.0967 15.75 14.669 15.5129 15.091 15.091C15.5129 14.669 15.75 14.0967 15.75 13.5C15.75 12.9033 15.5129 12.331 15.091 11.909C14.669 11.4871 14.0967 11.25 13.5 11.25ZM10.318 10.318C11.1619 9.47411 12.3065 9 13.5 9C14.6935 9 15.8381 9.47411 16.682 10.318C17.5259 11.1619 18 12.3065 18 13.5C18 14.6935 17.5259 15.8381 16.682 16.682C15.8381 17.5259 14.6935 18 13.5 18C12.3065 18 11.1619 17.5259 10.318 16.682C9.47411 15.8381 9 14.6935 9 13.5C9 12.3065 9.47411 11.1619 10.318 10.318Z" fill="#C1C1C1"/>
</g>
</g>
</svg>
