<svg width="28" height="27" viewBox="0 0 28 27" fill="none" xmlns="http://www.w3.org/2000/svg">
<path d="M13.9081 4.5C11.4418 4.5 9.44241 6.51472 9.44241 9C9.44241 11.4853 11.4418 13.5 13.9081 13.5C16.3744 13.5 18.3737 11.4853 18.3737 9C18.3737 6.51472 16.3744 4.5 13.9081 4.5ZM7.20959 9C7.20959 5.27208 10.2086 2.25 13.9081 2.25C17.6075 2.25 20.6065 5.27208 20.6065 9C20.6065 12.7279 17.6075 15.75 13.9081 15.75C10.2086 15.75 7.20959 12.7279 7.20959 9ZM9.44241 20.25C7.59268 20.25 6.09318 21.761 6.09318 23.625C6.09318 24.2463 5.59334 24.75 4.97676 24.75C4.36019 24.75 3.86035 24.2463 3.86035 23.625C3.86035 20.5184 6.35953 18 9.44241 18H18.3737C21.4566 18 23.9558 20.5184 23.9558 23.625C23.9558 24.2463 23.4559 24.75 22.8394 24.75C22.2228 24.75 21.7229 24.2463 21.7229 23.625C21.7229 21.761 20.2234 20.25 18.3737 20.25H9.44241Z" fill="currentColor"/>
</svg>
