<svg width="73" height="73" viewBox="0 0 73 73" fill="none" xmlns="http://www.w3.org/2000/svg">
<path d="M36.5 12.1668C29.7805 12.1668 24.3333 17.614 24.3333 24.3335C24.3333 31.053 29.7805 36.5002 36.5 36.5002C43.2195 36.5002 48.6667 31.053 48.6667 24.3335C48.6667 17.614 43.2195 12.1668 36.5 12.1668ZM18.25 24.3335C18.25 14.2543 26.4208 6.0835 36.5 6.0835C46.5792 6.0835 54.75 14.2543 54.75 24.3335C54.75 34.4127 46.5792 42.5835 36.5 42.5835C26.4208 42.5835 18.25 34.4127 18.25 24.3335ZM24.3333 54.7502C19.2937 54.7502 15.2083 58.8356 15.2083 63.8752C15.2083 65.555 13.8465 66.9168 12.1667 66.9168C10.4868 66.9168 9.125 65.555 9.125 63.8752C9.125 55.4758 15.934 48.6668 24.3333 48.6668H48.6667C57.066 48.6668 63.875 55.4758 63.875 63.8752C63.875 65.555 62.5132 66.9168 60.8333 66.9168C59.1535 66.9168 57.7917 65.555 57.7917 63.8752C57.7917 58.8356 53.7063 54.7502 48.6667 54.7502H24.3333Z" fill="#CFCFCF"/>
</svg>
