<svg width="26" height="26" viewBox="0 0 26 26" fill="none" xmlns="http://www.w3.org/2000/svg">
<g id="camera">
<path id="Icon" d="M8.98381 4.6508C9.18697 4.44763 9.46252 4.3335 9.74984 4.3335H16.2498C16.5372 4.3335 16.8127 4.44763 17.0159 4.6508L18.8652 6.50016H21.6665C22.8631 6.50016 23.8332 7.47021 23.8332 8.66683V19.5002C23.8332 20.6968 22.8631 21.6668 21.6665 21.6668H4.33317C3.13655 21.6668 2.1665 20.6968 2.1665 19.5002V8.66683C2.1665 7.47021 3.13655 6.50016 4.33317 6.50016H7.13444L8.98381 4.6508ZM10.1986 6.50016L8.3492 8.34953C8.14604 8.55269 7.87049 8.66683 7.58317 8.66683L4.33317 8.66683V19.5002H21.6665V8.66683H18.4165C18.1292 8.66683 17.8536 8.55269 17.6505 8.34953L15.8011 6.50016H10.1986ZM12.9998 11.3752C11.8032 11.3752 10.8332 12.3452 10.8332 13.5418C10.8332 14.7384 11.8032 15.7085 12.9998 15.7085C14.1965 15.7085 15.1665 14.7384 15.1665 13.5418C15.1665 12.3452 14.1965 11.3752 12.9998 11.3752ZM8.6665 13.5418C8.6665 11.1486 10.6066 9.2085 12.9998 9.2085C15.3931 9.2085 17.3332 11.1486 17.3332 13.5418C17.3332 15.9351 15.3931 17.8752 12.9998 17.8752C10.6066 17.8752 8.6665 15.9351 8.6665 13.5418Z" fill="#CFCFCF"/>
</g>
</svg>
