<svg xmlns="http://www.w3.org/2000/svg" width="13" height="13" viewBox="0 0 13 13" fill="none">
  <path d="M6.49992 2.16659C4.10668 2.16659 2.16659 4.10668 2.16659 6.49992C2.16659 8.89315 4.10668 10.8333 6.49992 10.8333C8.89315 10.8333 10.8333 8.89315 10.8333 6.49992C10.8333 4.10668 8.89315 2.16659 6.49992 2.16659ZM1.08325 6.49992C1.08325 3.50838 3.50838 1.08325 6.49992 1.08325C9.49146 1.08325 11.9166 3.50838 11.9166 6.49992C11.9166 9.49146 9.49146 11.9166 6.49992 11.9166C3.50838 11.9166 1.08325 9.49146 1.08325 6.49992Z" fill="#FF3B30"/>
  <path d="M6.49992 7.58325C6.20076 7.58325 5.95825 7.34074 5.95825 7.04159L5.95825 3.79159C5.95825 3.49243 6.20077 3.24992 6.49992 3.24992C6.79907 3.24992 7.04159 3.49243 7.04159 3.79159L7.04159 7.04159C7.04159 7.34074 6.79907 7.58325 6.49992 7.58325Z" fill="#FF3B30"/>
  <path d="M5.68742 8.93742C5.68742 8.48869 6.05119 8.12492 6.49992 8.12492C6.94865 8.12492 7.31242 8.48869 7.31242 8.93742C7.31242 9.38615 6.94865 9.74992 6.49992 9.74992C6.05119 9.74992 5.68742 9.38615 5.68742 8.93742Z" fill="#FF3B30"/>
  </svg>