<svg width="24" height="24" viewBox="0 0 24 24" fill="none" xmlns="http://www.w3.org/2000/svg">
<g id="close">
<path id="Icon" d="M5.62621 5.62639C6.01673 5.23586 6.6499 5.23586 7.04042 5.62639L12.3333 10.9193L17.6262 5.62639C18.0167 5.23586 18.6499 5.23586 19.0404 5.62639C19.4309 6.01691 19.4309 6.65008 19.0404 7.0406L13.7475 12.3335L19.0404 17.6264C19.4309 18.0169 19.4309 18.6501 19.0404 19.0406C18.6499 19.4311 18.0167 19.4311 17.6262 19.0406L12.3333 13.7477L7.04042 19.0406C6.6499 19.4311 6.01673 19.4311 5.62621 19.0406C5.23568 18.6501 5.23568 18.0169 5.62621 17.6264L10.9191 12.3335L5.62621 7.0406C5.23568 6.65008 5.23568 6.01691 5.62621 5.62639Z" fill="#909090"/>
</g>
</svg>
