<svg width="25" height="25" viewBox="0 0 25 25" fill="none" xmlns="http://www.w3.org/2000/svg">
<g id="close">
<path id="Icon" d="M5.86076 5.86076C6.26756 5.45396 6.9271 5.45396 7.3339 5.86076L12.8473 11.3742L18.3608 5.86076C18.7676 5.45396 19.4271 5.45396 19.8339 5.86076C20.2407 6.26756 20.2407 6.9271 19.8339 7.3339L14.3205 12.8473L19.8339 18.3608C20.2407 18.7676 20.2407 19.4271 19.8339 19.8339C19.4271 20.2407 18.7676 20.2407 18.3608 19.8339L12.8473 14.3205L7.3339 19.8339C6.9271 20.2407 6.26756 20.2407 5.86076 19.8339C5.45396 19.4271 5.45396 18.7676 5.86076 18.3608L11.3742 12.8473L5.86076 7.3339C5.45396 6.9271 5.45396 6.26756 5.86076 5.86076Z" fill="#909090"/>
</g>
</svg>
