<svg width="31" height="30" viewBox="0 0 31 30" fill="none" xmlns="http://www.w3.org/2000/svg">
<g id="users">
<path id="Icon" d="M12.6542 5.60111C9.89277 5.60111 7.65419 7.75008 7.65419 10.401C7.65419 13.0519 9.89277 15.2009 12.6542 15.2009C15.4156 15.2009 17.6542 13.0519 17.6542 10.401C17.6542 7.75008 15.4156 5.60111 12.6542 5.60111ZM5.15419 10.401C5.15419 6.42464 8.51205 3.20117 12.6542 3.20117C16.7963 3.20117 20.1542 6.42464 20.1542 10.401C20.1542 14.3773 16.7963 17.6008 12.6542 17.6008C8.51205 17.6008 5.15419 14.3773 5.15419 10.401ZM21.1897 5.30995C21.6779 4.84133 22.4693 4.84133 22.9575 5.30995C25.8864 8.12165 25.8864 12.6803 22.9575 15.492C22.4693 15.9606 21.6779 15.9606 21.1897 15.492C20.7016 15.0234 20.7016 14.2636 21.1897 13.795C23.1423 11.9205 23.1423 8.88142 21.1897 7.00696C20.7016 6.53834 20.7016 5.77856 21.1897 5.30995ZM22.0665 20.9097C22.2339 20.2667 22.9126 19.8758 23.5824 20.0366C25.2423 20.4349 26.2929 21.4538 26.8972 22.614C27.4819 23.7366 27.6542 24.9891 27.6542 26.0006C27.6542 26.6633 27.0945 27.2005 26.4042 27.2005C25.7138 27.2005 25.1542 26.6633 25.1542 26.0006C25.1542 25.212 25.0139 24.3646 24.6612 23.6873C24.3279 23.0475 23.8161 22.5665 22.976 22.3648C22.3063 22.2041 21.8991 21.5526 22.0665 20.9097ZM8.27919 22.4007C6.70487 22.4007 5.15419 23.8569 5.15419 26.0006C5.15419 26.6633 4.59455 27.2005 3.90419 27.2005C3.21383 27.2005 2.65419 26.6633 2.65419 26.0006C2.65419 22.8425 5.02102 20.0007 8.27919 20.0007H17.0292C20.2874 20.0007 22.6542 22.8425 22.6542 26.0006C22.6542 26.6633 22.0945 27.2005 21.4042 27.2005C20.7138 27.2005 20.1542 26.6633 20.1542 26.0006C20.1542 23.8569 18.6035 22.4007 17.0292 22.4007H8.27919Z" fill="#818181"/>
</g>
</svg>
