<svg width="14" height="14" viewBox="0 0 14 14" fill="none" xmlns="http://www.w3.org/2000/svg">
<g id="message">
<path id="Icon" d="M1.16675 3.50004C1.16675 2.85571 1.68908 2.33337 2.33341 2.33337H11.6667C12.3111 2.33337 12.8334 2.85571 12.8334 3.50004V9.91671C12.8334 10.561 12.3111 11.0834 11.6667 11.0834H8.99171L7.41256 12.6625C7.18475 12.8903 6.81541 12.8903 6.5876 12.6625L5.00846 11.0834H2.33341C1.68908 11.0834 1.16675 10.561 1.16675 9.91671V3.50004ZM11.6667 3.50004H2.33341V9.91671H5.25008C5.40479 9.91671 5.55316 9.97817 5.66256 10.0876L7.00008 11.4251L8.3376 10.0876C8.447 9.97817 8.59537 9.91671 8.75008 9.91671H11.6667V3.50004ZM3.50008 5.54171C3.50008 5.21954 3.76125 4.95837 4.08341 4.95837H9.91675C10.2389 4.95837 10.5001 5.21954 10.5001 5.54171C10.5001 5.86387 10.2389 6.12504 9.91675 6.12504H4.08341C3.76125 6.12504 3.50008 5.86387 3.50008 5.54171ZM3.50008 7.87504C3.50008 7.55287 3.76125 7.29171 4.08341 7.29171H7.58341C7.90558 7.29171 8.16675 7.55287 8.16675 7.87504C8.16675 8.19721 7.90558 8.45837 7.58341 8.45837H4.08341C3.76125 8.45837 3.50008 8.19721 3.50008 7.87504Z" fill="#ACACAC"/>
</g>
</svg>
