<svg width="17" height="18" viewBox="0 0 17 18" fill="none" xmlns="http://www.w3.org/2000/svg">
<path id="Icon" d="M6.83268 2.33268C4.07126 2.33268 1.83268 4.57126 1.83268 7.33268C1.83268 10.0941 4.07126 12.3327 6.83268 12.3327C9.59411 12.3327 11.8327 10.0941 11.8327 7.33268C11.8327 4.57126 9.59411 2.33268 6.83268 2.33268ZM0.166016 7.33268C0.166016 3.65078 3.15078 0.666016 6.83268 0.666016C10.5146 0.666016 13.4993 3.65078 13.4993 7.33268C13.4993 8.87327 12.9768 10.2918 12.0992 11.4207L16.5886 15.9101C16.914 16.2355 16.914 16.7632 16.5886 17.0886C16.2632 17.414 15.7355 17.414 15.4101 17.0886L10.9207 12.5992C9.79182 13.4768 8.37327 13.9993 6.83268 13.9993C3.15078 13.9993 0.166016 11.0146 0.166016 7.33268Z" fill="#818181"/>
</svg>
