<svg width="20" height="20" viewBox="0 0 20 20" fill="none" xmlns="http://www.w3.org/2000/svg">
<g id="send">
<path id="Icon" d="M10 1.66663C10.3156 1.66663 10.6042 1.84496 10.7454 2.12728L18.2454 17.1273C18.3891 17.4148 18.3547 17.7594 18.1568 18.0128C17.959 18.2662 17.633 18.3832 17.3192 18.3134L10 16.687L2.68077 18.3134C2.36695 18.3832 2.041 18.2662 1.84316 18.0128C1.64532 17.7594 1.61087 17.4148 1.75464 17.1273L9.25464 2.12728C9.3958 1.84496 9.68435 1.66663 10 1.66663ZM10.8333 15.1648L15.9717 16.3067L10.8333 6.03002V15.1648ZM9.16666 6.03002L4.02834 16.3067L9.16666 15.1648V6.03002Z" fill="#FF8743"/>
</g>
</svg>
